<?xml version="1.0" encoding="utf-8"?>
<!-- Generated by IcoMoon.io -->
<!DOCTYPE svg PUBLIC "-//W3C//DTD SVG 1.1//EN" "http://www.w3.org/Graphics/SVG/1.1/DTD/svg11.dtd">
<svg version="1.1" xmlns="http://www.w3.org/2000/svg" xmlns:xlink="http://www.w3.org/1999/xlink" width="1024" height="1024" viewBox="0 0 1024 1024">
<g id="icomoon-ignore">
</g>
<path fill="red" d="M689.033 576.885l-113.033-96.885 189.538-162.462-25.846-25.846-275.692 236.308-275.692-236.308-25.846 25.846 189.538 162.462-189.538 162.462 25.846 25.846 191.692-164.308 84 72 84-72 122.219 104.759-75.108 127.241h-466.996c-35.643 0-64.115-28.569-64.115-63.81v-384.38c0-35.185 28.705-63.81 64.115-63.81h671.77c35.643 0 64.115 28.569 64.115 63.81v263.719l-80-135.529-94.967 160.885zM784 480l208 352h-416l208-352zM768 608v96h32v-96h-32zM768 736v32h32v-32h-32z"></path>
</svg>
