<?xml version="1.0" encoding="utf-8"?>
<!-- Generated by IcoMoon.io -->
<!DOCTYPE svg PUBLIC "-//W3C//DTD SVG 1.1//EN" "http://www.w3.org/Graphics/SVG/1.1/DTD/svg11.dtd">
<svg version="1.1" xmlns="http://www.w3.org/2000/svg" xmlns:xlink="http://www.w3.org/1999/xlink" width="1024" height="1024" viewBox="0 0 1024 1024">
<g id="icomoon-ignore">
</g>
<path fill="green" d="M644.309 538.55l-68.309-58.55 189.538-162.462-25.846-25.846-275.692 236.308-275.692-236.308-25.846 25.846 189.538 162.462-189.538 162.462 25.846 25.846 191.692-164.308 84 72 84-72 78.121 66.961c-11.645 25.961-18.121 54.743-18.121 85.039 0 28.349 5.671 55.373 15.941 80h-495.826c-35.643 0-64.115-28.569-64.115-63.81v-384.38c0-35.185 28.705-63.81 64.115-63.81h671.77c35.643 0 64.115 28.569 64.115 63.81v165.756c-15.409-3.64-31.479-5.566-48-5.566-71.296 0-134.214 35.871-171.691 90.55v0 0zM816 832c97.202 0 176-78.798 176-176s-78.798-176-176-176c-97.202 0-176 78.798-176 176s78.798 176 176 176v0zM800 743.765l-75.314-75.314 23.431-23.431 51.882 51.882 99.882-99.882 23.431 23.431-123.314 123.314z"></path>
</svg>
