<?xml version="1.0" encoding="utf-8"?>
<!-- Generated by IcoMoon.io -->
<!DOCTYPE svg PUBLIC "-//W3C//DTD SVG 1.1//EN" "http://www.w3.org/Graphics/SVG/1.1/DTD/svg11.dtd">
<svg version="1.1" xmlns="http://www.w3.org/2000/svg" xmlns:xlink="http://www.w3.org/1999/xlink" width="768" height="768" viewBox="0 0 768 768">
<g id="icomoon-ignore">
</g>
<path fill="#fff" d="M520 487.75q13 0 22.5 9.5l90.5 90.5q9.5 9.5 9.5 22.75 0 13-9.5 22.5t-22.5 9.5q-13.25 0-22.75-9.5l-90.5-90.5q-9.25-9.25-9.25-22.75 0-13.25 9.375-22.625t22.625-9.375zM248.25 487.75q13.25 0 22.625 9.375t9.375 22.625-9.5 22.75l-90.5 90.5q-9.5 9.5-22.5 9.5-13.25 0-22.625-9.375t-9.375-22.625q0-13.5 9.25-22.75l90.5-90.5q9.5-9.5 22.75-9.5zM64 352h128q13.25 0 22.625 9.375t9.375 22.625-9.375 22.625-22.625 9.375h-128q-13.25 0-22.625-9.375t-9.375-22.625 9.375-22.625 22.625-9.375zM384 544q13.25 0 22.625 9.375t9.375 22.625v128q0 13.25-9.375 22.625t-22.625 9.375-22.625-9.375-9.375-22.625v-128q0-13.25 9.375-22.625t22.625-9.375zM157.75 125.5q13 0 22.5 9.5l90.5 90.5q9.5 9.5 9.5 22.5 0 13.25-9.375 22.625t-22.625 9.375q-13.5 0-22.75-9.25l-90.5-90.5q-9.25-9.25-9.25-22.75 0-13.25 9.375-22.625t22.625-9.375zM576 352h128q13.25 0 22.625 9.375t9.375 22.625-9.375 22.625-22.625 9.375h-128q-13.25 0-22.625-9.375t-9.375-22.625 9.375-22.625 22.625-9.375zM384 32q13.25 0 22.625 9.375t9.375 22.625v128q0 13.25-9.375 22.625t-22.625 9.375-22.625-9.375-9.375-22.625v-128q0-13.25 9.375-22.625t22.625-9.375zM610.5 125.5q13 0 22.5 9.5t9.5 22.5q0 13.25-9.5 22.75l-90.5 90.5q-9.25 9.25-22.5 9.25-13.75 0-22.875-9.125t-9.125-22.875q0-13.25 9.25-22.5l90.5-90.5q9.5-9.5 22.75-9.5z"></path>
</svg>
