<svg xmlns="http://www.w3.org/2000/svg" xmlns:xlink="http://www.w3.org/1999/xlink" width="574.056" height="87.19200000000001"><path fill="white" stroke="transparent" d="M11.88 29.16Q11.88 31.82 13.21 33.88Q14.54 35.93 16.49 37.44Q18.43 38.95 21.82 41.04Q25.34 43.20 27.50 44.93Q29.66 46.66 31.18 49.10Q32.69 51.55 32.69 54.72Q32.69 58.39 30.74 61.27Q28.80 64.15 25.34 65.77Q21.89 67.39 17.35 67.39Q14.40 67.39 11.20 66.56Q7.99 65.74 6.34 64.58Q5.69 64.30 5.62 63.29L5.18 52.42L5.18 52.34Q5.18 52.06 5.54 52.02Q5.90 51.98 6.05 52.20Q8.35 58.10 11.41 61.96Q14.47 65.81 19.15 65.81Q22.32 65.81 24.41 64.12Q26.50 62.42 26.50 58.54Q26.50 55.30 25.09 52.92Q23.69 50.54 21.64 48.92Q19.58 47.30 16.06 45.07Q12.60 42.84 10.66 41.29Q8.71 39.74 7.34 37.51Q5.98 35.28 5.98 32.26Q5.98 28.44 8.06 25.85Q10.15 23.26 13.50 22.00Q16.85 20.74 20.59 20.74Q22.97 20.74 25.42 21.20Q27.86 21.67 29.52 22.39Q30.67 22.90 30.67 23.76L30.82 33.55Q30.82 33.77 30.42 33.88Q30.02 33.98 29.95 33.70Q26.50 22.10 18.86 22.10Q15.62 22.10 13.75 24.01Q11.88 25.92 11.88 29.16ZM51.70 23.04Q47.30 23.04 44.50 25.74Q41.69 28.44 40.18 33.91Q40.10 34.06 39.71 34.02Q39.31 33.98 39.31 33.84Q39.60 31.68 39.96 27.04Q40.32 22.39 40.32 19.94Q40.32 19.58 40.75 19.58Q41.18 19.58 41.18 19.94Q41.18 21.53 45.14 21.53Q51.34 21.74 59.62 21.74Q63.94 21.74 68.69 21.60L73.51 21.53Q76.25 21.53 77.51 21.17Q78.77 20.81 79.13 19.73Q79.20 19.44 79.56 19.44Q79.92 19.44 79.92 19.73Q79.70 21.96 79.49 26.50Q79.27 31.03 79.27 33.84Q79.27 33.98 78.88 33.98Q78.48 33.98 78.41 33.84Q77.69 28.30 75.02 25.67Q72.36 23.04 67.82 23.04Q65.81 23.04 64.84 23.40Q63.86 23.76 63.54 24.66Q63.22 25.56 63.22 27.50L63.22 60.70Q63.22 62.93 63.65 63.94Q64.08 64.94 65.38 65.30Q66.67 65.66 69.48 65.66Q69.70 65.66 69.70 66.10Q69.70 66.53 69.48 66.53Q66.96 66.53 65.52 66.46L59.62 66.38L54.00 66.46Q52.49 66.53 49.82 66.53Q49.68 66.53 49.68 66.10Q49.68 65.66 49.82 65.66Q52.63 65.66 53.93 65.27Q55.22 64.87 55.73 63.86Q56.23 62.86 56.23 60.70L56.23 27.36Q56.23 24.70 55.37 23.87Q54.50 23.04 51.70 23.04ZM134.86 65.66Q135.07 65.66 135.07 66.10Q135.07 66.53 134.86 66.53L128.74 66.46L124.06 66.53Q123.12 66.53 122.90 66.31Q122.69 66.10 122.69 65.16L122.69 59.98Q118.58 63.79 114.70 65.59Q110.81 67.39 106.13 67.39Q101.45 67.39 97.70 65.63Q93.96 63.86 91.76 60.66Q89.57 57.46 89.57 53.14L89.57 27.36Q89.57 25.20 89.17 24.19Q88.78 23.18 87.62 22.79Q86.47 22.39 84.10 22.39Q83.95 22.39 83.95 21.96Q83.95 21.53 84.10 21.53L87.91 21.60Q91.08 21.74 93.02 21.74Q95.18 21.74 98.35 21.60L101.95 21.53Q102.17 21.53 102.17 21.96Q102.17 22.39 101.95 22.39Q99.58 22.39 98.42 22.82Q97.27 23.26 96.88 24.30Q96.48 25.34 96.48 27.50L96.48 50.62Q96.48 57.46 99.79 61.13Q103.10 64.80 108.72 64.80Q112.39 64.80 115.74 63.22Q119.09 61.63 122.69 58.18L122.69 27.50Q122.69 25.34 122.29 24.30Q121.90 23.26 120.78 22.82Q119.66 22.39 117.22 22.39Q117.07 22.39 117.07 21.96Q117.07 21.53 117.22 21.53L120.89 21.60Q124.06 21.74 125.93 21.74Q127.94 21.74 131.11 21.60L134.86 21.53Q135.07 21.53 135.07 21.96Q135.07 22.39 134.86 22.39Q132.41 22.39 131.29 22.79Q130.18 23.18 129.74 24.19Q129.31 25.20 129.31 27.36L129.31 60.70Q129.31 62.86 129.74 63.90Q130.18 64.94 131.29 65.30Q132.41 65.66 134.86 65.66ZM160.20 66.82Q157.90 66.82 154.87 66.60Q153.79 66.53 152.14 66.46Q150.48 66.38 148.46 66.38L143.35 66.46Q141.98 66.53 139.54 66.53Q139.32 66.53 139.32 66.10Q139.32 65.66 139.54 65.66Q141.98 65.66 143.10 65.30Q144.22 64.94 144.65 63.90Q145.08 62.86 145.08 60.70L145.08 27.36Q145.08 25.20 144.68 24.19Q144.29 23.18 143.14 22.79Q141.98 22.39 139.61 22.39Q139.46 22.39 139.46 21.96Q139.46 21.53 139.61 21.53L143.35 21.60Q146.52 21.74 148.46 21.74Q151.34 21.74 154.30 21.53Q157.90 21.38 159.12 21.38Q166.46 21.38 172.15 24.26Q177.84 27.14 180.97 32.11Q184.10 37.08 184.10 43.27Q184.10 50.26 180.86 55.62Q177.62 60.98 172.15 63.90Q166.68 66.82 160.20 66.82M159.41 65.38Q164.38 65.38 168.23 62.96Q172.08 60.55 174.24 55.94Q176.40 51.34 176.40 44.86Q176.40 38.66 174.35 33.62Q172.30 28.58 168.55 25.70Q164.81 22.82 159.84 22.82Q156.74 22.82 155.12 23.15Q153.50 23.47 152.75 24.48Q151.99 25.49 151.99 27.50L151.99 59.90Q151.99 62.86 153.50 64.12Q155.02 65.38 159.41 65.38ZM203.40 60.70Q203.40 62.93 203.80 63.94Q204.19 64.94 205.31 65.30Q206.42 65.66 208.87 65.66Q209.02 65.66 209.02 66.10Q209.02 66.53 208.87 66.53Q206.50 66.53 205.13 66.46L199.80 66.38L194.62 66.46Q193.25 66.53 190.87 66.53Q190.66 66.53 190.66 66.10Q190.66 65.66 190.87 65.66Q193.32 65.66 194.44 65.30Q195.55 64.94 195.98 63.90Q196.42 62.86 196.42 60.70L196.42 27.36Q196.42 25.20 195.98 24.19Q195.55 23.18 194.44 22.79Q193.32 22.39 190.87 22.39Q190.66 22.39 190.66 21.96Q190.66 21.53 190.87 21.53L194.62 21.60Q197.78 21.74 199.80 21.74Q201.96 21.74 205.27 21.60L208.87 21.53Q209.02 21.53 209.02 21.96Q209.02 22.39 208.87 22.39Q206.50 22.39 205.34 22.82Q204.19 23.26 203.80 24.30Q203.40 25.34 203.40 27.50L203.40 60.70ZM238.39 67.39Q231.70 67.39 226.48 64.26Q221.26 61.13 218.41 55.76Q215.57 50.40 215.57 44.06Q215.57 36.65 219.31 31.36Q223.06 26.06 228.92 23.40Q234.79 20.74 240.91 20.74Q247.75 20.74 252.94 23.94Q258.12 27.14 260.89 32.40Q263.66 37.66 263.66 43.56Q263.66 50.11 260.21 55.58Q256.75 61.06 250.96 64.22Q245.16 67.39 238.39 67.39M240.84 65.66Q245.16 65.66 248.58 63.32Q252.00 60.98 253.98 56.45Q255.96 51.91 255.96 45.65Q255.96 39.02 253.76 33.77Q251.57 28.51 247.50 25.52Q243.43 22.54 238.03 22.54Q230.98 22.54 227.12 27.58Q223.27 32.62 223.27 41.47Q223.27 48.31 225.54 53.86Q227.81 59.40 231.80 62.53Q235.80 65.66 240.84 65.66ZM335.66 21.53Q335.81 21.53 335.81 21.96Q335.81 22.39 335.66 22.39Q332.71 22.39 331.16 24.44Q329.62 26.50 329.62 30.31L329.62 67.54Q329.62 67.68 329.26 67.75Q328.90 67.82 328.75 67.68L294.98 28.44L294.98 57.82Q294.98 61.63 296.50 63.65Q298.01 65.66 300.89 65.66Q301.03 65.66 301.03 66.10Q301.03 66.53 300.89 66.53Q298.94 66.53 297.86 66.46L294.12 66.38L289.94 66.46Q288.79 66.53 286.56 66.53Q286.34 66.53 286.34 66.10Q286.34 65.66 286.56 65.66Q289.66 65.66 291.35 63.65Q293.04 61.63 293.04 57.82L293.04 26.21Q291.02 24.12 289.37 23.26Q287.71 22.39 286.06 22.39Q285.91 22.39 285.91 21.96Q285.91 21.53 286.06 21.53L288.94 21.60Q289.87 21.67 291.60 21.67L296.21 21.60Q297.07 21.53 298.22 21.53Q298.80 21.53 299.16 21.82Q299.52 22.10 300.10 23.04Q300.74 24.12 301.75 25.27L327.67 55.80L327.67 30.31Q327.67 26.50 326.20 24.44Q324.72 22.39 321.84 22.39Q321.70 22.39 321.70 21.96Q321.70 21.53 321.84 21.53L324.79 21.60Q327.10 21.74 328.61 21.74Q329.90 21.74 332.50 21.60L335.66 21.53ZM371.95 55.30Q371.95 55.22 372.24 55.22Q372.82 55.22 372.82 55.44Q372.10 60.91 372.10 65.45Q372.10 66.02 371.88 66.28Q371.66 66.53 371.02 66.53L339.77 66.53Q339.55 66.53 339.55 66.10Q339.55 65.66 339.77 65.66Q342.22 65.66 343.33 65.30Q344.45 64.94 344.84 63.90Q345.24 62.86 345.24 60.70L345.24 27.36Q345.24 25.20 344.84 24.19Q344.45 23.18 343.30 22.79Q342.14 22.39 339.77 22.39Q339.55 22.39 339.55 21.96Q339.55 21.53 339.77 21.53L369.79 21.53Q370.44 21.53 370.44 22.18L370.58 31.54Q370.58 31.68 370.19 31.72Q369.79 31.75 369.79 31.61Q367.99 23.40 359.71 23.40L356.83 23.40Q354.17 23.40 353.12 24.34Q352.08 25.27 352.08 27.58L352.08 42.19L359.06 42.19Q366.91 42.19 366.91 36.86Q366.91 36.65 367.34 36.65Q367.78 36.65 367.78 36.86L367.70 40.82Q367.63 41.62 367.63 43.13L367.70 46.51Q367.85 48.82 367.85 50.18Q367.85 50.40 367.42 50.40Q366.98 50.40 366.98 50.18Q366.98 47.16 364.97 45.61Q362.95 44.06 358.92 44.06L352.08 44.06L352.08 60.41Q352.08 62.78 352.98 63.72Q353.88 64.66 356.18 64.66L359.71 64.66Q369.36 64.66 371.95 55.30M350.93 17.71Q350.64 17.71 350.57 17.39Q350.50 17.06 350.71 16.92Q353.09 15.41 357.48 12.10Q358.49 11.23 360.65 9.65Q361.01 9.36 362.95 9.94Q364.90 10.51 366.37 11.23Q367.85 11.95 367.06 12.10Q362.59 13.18 358.88 14.51Q355.18 15.84 351.07 17.64L350.93 17.71ZM435.60 65.66Q435.74 65.66 435.74 66.10Q435.74 66.53 435.60 66.53Q433.15 66.53 431.78 66.46L426.67 66.38L421.49 66.46Q420.19 66.53 417.89 66.53Q417.74 66.53 417.74 66.10Q417.74 65.66 417.89 65.66Q420.26 65.66 421.38 65.30Q422.50 64.94 422.89 63.90Q423.29 62.86 423.14 60.70L421.70 30.31L406.37 66.02Q406.22 66.31 405.79 66.31Q405.43 66.31 405.14 66.02L387.14 30.46L386.50 57.82Q386.42 61.63 387.97 63.65Q389.52 65.66 392.62 65.66Q392.83 65.66 392.83 66.10Q392.83 66.53 392.62 66.53Q390.67 66.53 389.59 66.46L385.63 66.38L381.38 66.46Q380.30 66.53 378.36 66.53Q378.14 66.53 378.14 66.10Q378.14 65.66 378.36 65.66Q381.31 65.66 382.93 63.61Q384.55 61.56 384.62 57.82L385.27 26.78Q382.90 22.39 378.86 22.39Q378.65 22.39 378.65 21.96Q378.65 21.53 378.86 21.53L381.96 21.60Q382.90 21.67 384.41 21.67L387.79 21.60Q388.37 21.53 389.23 21.53Q390.17 21.53 390.74 22.21Q391.32 22.90 392.54 25.27L408.38 56.16L422.71 23.33Q423.14 22.32 423.65 21.92Q424.15 21.53 424.94 21.53Q425.45 21.53 426.24 21.60Q427.03 21.67 428.11 21.67L432.07 21.60Q433.01 21.53 434.81 21.53Q434.95 21.53 434.95 21.96Q434.95 22.39 434.81 22.39Q431.35 22.39 429.80 23.65Q428.26 24.91 428.40 27.79L430.06 60.70Q430.20 62.93 430.60 63.94Q430.99 64.94 432.07 65.30Q433.15 65.66 435.60 65.66ZM472.54 55.30Q472.54 55.22 472.82 55.22Q473.40 55.22 473.40 55.44Q472.68 60.91 472.68 65.45Q472.68 66.02 472.46 66.28Q472.25 66.53 471.60 66.53L440.35 66.53Q440.14 66.53 440.14 66.10Q440.14 65.66 440.35 65.66Q442.80 65.66 443.92 65.30Q445.03 64.94 445.43 63.90Q445.82 62.86 445.82 60.70L445.82 27.36Q445.82 25.20 445.43 24.19Q445.03 23.18 443.88 22.79Q442.73 22.39 440.35 22.39Q440.14 22.39 440.14 21.96Q440.14 21.53 440.35 21.53L470.38 21.53Q471.02 21.53 471.02 22.18L471.17 31.54Q471.17 31.68 470.77 31.72Q470.38 31.75 470.38 31.61Q468.58 23.40 460.30 23.40L457.42 23.40Q454.75 23.40 453.71 24.34Q452.66 25.27 452.66 27.58L452.66 42.19L459.65 42.19Q467.50 42.19 467.50 36.86Q467.50 36.65 467.93 36.65Q468.36 36.65 468.36 36.86L468.29 40.82Q468.22 41.62 468.22 43.13L468.29 46.51Q468.43 48.82 468.43 50.18Q468.43 50.40 468.00 50.40Q467.57 50.40 467.57 50.18Q467.57 47.16 465.55 45.61Q463.54 44.06 459.50 44.06L452.66 44.06L452.66 60.41Q452.66 62.78 453.56 63.72Q454.46 64.66 456.77 64.66L460.30 64.66Q469.94 64.66 472.54 55.30M451.51 17.71Q451.22 17.71 451.15 17.39Q451.08 17.06 451.30 16.92Q453.67 15.41 458.06 12.10Q459.07 11.23 461.23 9.65Q461.59 9.36 463.54 9.94Q465.48 10.51 466.96 11.23Q468.43 11.95 467.64 12.10Q463.18 13.18 459.47 14.51Q455.76 15.84 451.66 17.64L451.51 17.71ZM488.59 29.16Q488.59 31.82 489.92 33.88Q491.26 35.93 493.20 37.44Q495.14 38.95 498.53 41.04Q502.06 43.20 504.22 44.93Q506.38 46.66 507.89 49.10Q509.40 51.55 509.40 54.72Q509.40 58.39 507.46 61.27Q505.51 64.15 502.06 65.77Q498.60 67.39 494.06 67.39Q491.11 67.39 487.91 66.56Q484.70 65.74 483.05 64.58Q482.40 64.30 482.33 63.29L481.90 52.42L481.90 52.34Q481.90 52.06 482.26 52.02Q482.62 51.98 482.76 52.20Q485.06 58.10 488.12 61.96Q491.18 65.81 495.86 65.81Q499.03 65.81 501.12 64.12Q503.21 62.42 503.21 58.54Q503.21 55.30 501.80 52.92Q500.40 50.54 498.35 48.92Q496.30 47.30 492.77 45.07Q489.31 42.84 487.37 41.29Q485.42 39.74 484.06 37.51Q482.69 35.28 482.69 32.26Q482.69 28.44 484.78 25.85Q486.86 23.26 490.21 22.00Q493.56 20.74 497.30 20.74Q499.68 20.74 502.13 21.20Q504.58 21.67 506.23 22.39Q507.38 22.90 507.38 23.76L507.53 33.55Q507.53 33.77 507.13 33.88Q506.74 33.98 506.66 33.70Q503.21 22.10 495.58 22.10Q492.34 22.10 490.46 24.01Q488.59 25.92 488.59 29.16ZM528.91 60.70Q528.91 62.93 529.31 63.94Q529.70 64.94 530.82 65.30Q531.94 65.66 534.38 65.66Q534.53 65.66 534.53 66.10Q534.53 66.53 534.38 66.53Q532.01 66.53 530.64 66.46L525.31 66.38L520.13 66.46Q518.76 66.53 516.38 66.53Q516.17 66.53 516.17 66.10Q516.17 65.66 516.38 65.66Q518.83 65.66 519.95 65.30Q521.06 64.94 521.50 63.90Q521.93 62.86 521.93 60.70L521.93 27.36Q521.93 25.20 521.50 24.19Q521.06 23.18 519.95 22.79Q518.83 22.39 516.38 22.39Q516.17 22.39 516.17 21.96Q516.17 21.53 516.38 21.53L520.13 21.60Q523.30 21.74 525.31 21.74Q527.47 21.74 530.78 21.60L534.38 21.53Q534.53 21.53 534.53 21.96Q534.53 22.39 534.38 22.39Q532.01 22.39 530.86 22.82Q529.70 23.26 529.31 24.30Q528.91 25.34 528.91 27.50L528.91 60.70ZM549.43 29.16Q549.43 31.82 550.76 33.88Q552.10 35.93 554.04 37.44Q555.98 38.95 559.37 41.04Q562.90 43.20 565.06 44.93Q567.22 46.66 568.73 49.10Q570.24 51.55 570.24 54.72Q570.24 58.39 568.30 61.27Q566.35 64.15 562.90 65.77Q559.44 67.39 554.90 67.39Q551.95 67.39 548.75 66.56Q545.54 65.74 543.89 64.58Q543.24 64.30 543.17 63.29L542.74 52.42L542.74 52.34Q542.74 52.06 543.10 52.02Q543.46 51.98 543.60 52.20Q545.90 58.10 548.96 61.96Q552.02 65.81 556.70 65.81Q559.87 65.81 561.96 64.12Q564.05 62.42 564.05 58.54Q564.05 55.30 562.64 52.92Q561.24 50.54 559.19 48.92Q557.14 47.30 553.61 45.07Q550.15 42.84 548.21 41.29Q546.26 39.74 544.90 37.51Q543.53 35.28 543.53 32.26Q543.53 28.44 545.62 25.85Q547.70 23.26 551.05 22.00Q554.40 20.74 558.14 20.74Q560.52 20.74 562.97 21.20Q565.42 21.67 567.07 22.39Q568.22 22.90 568.22 23.76L568.37 33.55Q568.37 33.77 567.97 33.88Q567.58 33.98 567.50 33.70Q564.05 22.10 556.42 22.10Q553.18 22.10 551.30 24.01Q549.43 25.92 549.43 29.16Z"/></svg>